<svg width="512" height="512" viewBox="0 0 512 512" fill="none" xmlns="http://www.w3.org/2000/svg">
<rect width="512" height="512" rx="85" fill="#3b82f6"/>
<path d="M256 128c-38.4 0-70 31.6-70 70v118c0 38.4 31.6 70 70 70s70-31.6 70-70V198c0-38.4-31.6-70-70-70z" fill="white"/>
<path d="M358 294c0 56.2-45.8 102-102 102s-102-45.8-102-102h-21c0 68.1 55.9 124 124 124s124-55.9 124-124h-23z" fill="white"/>
<rect x="246" y="396" width="20" height="54" fill="white"/>
<rect x="204" y="438" width="104" height="20" fill="white"/>
</svg>
